<mxfile host="app.diagrams.net" agent="Mozilla/5.0 (Windows NT 10.0; Win64; x64) AppleWebKit/537.36 (KHTML, like Gecko) Chrome/133.0.0.0 Safari/537.36" version="26.0.16">
  <diagram name="Página-1" id="sVXTwmg72bwqkmIFlTXV">
    <mxGraphModel dx="1434" dy="784" grid="1" gridSize="10" guides="1" tooltips="1" connect="1" arrows="1" fold="1" page="1" pageScale="1" pageWidth="827" pageHeight="1169" math="0" shadow="0">
      <root>
        <mxCell id="0" />
        <mxCell id="1" parent="0" />
        <mxCell id="GMdu4HkYUc1KK5raUGNz-1" value="Inicio" style="rounded=1;whiteSpace=wrap;html=1;fillColor=light-dark(#3399FF,var(--ge-dark-color, #121212));" vertex="1" parent="1">
          <mxGeometry x="328" y="100" width="120" height="60" as="geometry" />
        </mxCell>
        <mxCell id="GMdu4HkYUc1KK5raUGNz-7" style="edgeStyle=orthogonalEdgeStyle;rounded=0;orthogonalLoop=1;jettySize=auto;html=1;entryX=0.5;entryY=0.25;entryDx=0;entryDy=0;entryPerimeter=0;" edge="1" parent="1" source="GMdu4HkYUc1KK5raUGNz-3" target="GMdu4HkYUc1KK5raUGNz-4">
          <mxGeometry relative="1" as="geometry" />
        </mxCell>
        <mxCell id="GMdu4HkYUc1KK5raUGNz-3" value="Nota1" style="shape=manualInput;whiteSpace=wrap;html=1;fillColor=light-dark(#FFE599,var(--ge-dark-color, #121212));" vertex="1" parent="1">
          <mxGeometry x="349" y="210" width="80" height="80" as="geometry" />
        </mxCell>
        <mxCell id="GMdu4HkYUc1KK5raUGNz-15" style="edgeStyle=orthogonalEdgeStyle;rounded=0;orthogonalLoop=1;jettySize=auto;html=1;" edge="1" parent="1" source="GMdu4HkYUc1KK5raUGNz-4" target="GMdu4HkYUc1KK5raUGNz-9">
          <mxGeometry relative="1" as="geometry" />
        </mxCell>
        <mxCell id="GMdu4HkYUc1KK5raUGNz-4" value="Nota 2" style="shape=manualInput;whiteSpace=wrap;html=1;fillColor=light-dark(#FFE599,#000000);" vertex="1" parent="1">
          <mxGeometry x="349" y="320" width="80" height="80" as="geometry" />
        </mxCell>
        <mxCell id="GMdu4HkYUc1KK5raUGNz-6" style="edgeStyle=orthogonalEdgeStyle;rounded=0;orthogonalLoop=1;jettySize=auto;html=1;entryX=0.488;entryY=0.238;entryDx=0;entryDy=0;entryPerimeter=0;" edge="1" parent="1" source="GMdu4HkYUc1KK5raUGNz-1" target="GMdu4HkYUc1KK5raUGNz-3">
          <mxGeometry relative="1" as="geometry" />
        </mxCell>
        <mxCell id="GMdu4HkYUc1KK5raUGNz-9" value="Nota1 + Nota2 = Media" style="rounded=0;whiteSpace=wrap;html=1;fillColor=light-dark(#67AB9F,var(--ge-dark-color, #121212));" vertex="1" parent="1">
          <mxGeometry x="304" y="440" width="170" height="60" as="geometry" />
        </mxCell>
        <mxCell id="GMdu4HkYUc1KK5raUGNz-17" style="edgeStyle=orthogonalEdgeStyle;rounded=0;orthogonalLoop=1;jettySize=auto;html=1;" edge="1" parent="1" source="GMdu4HkYUc1KK5raUGNz-12" target="GMdu4HkYUc1KK5raUGNz-14">
          <mxGeometry relative="1" as="geometry" />
        </mxCell>
        <mxCell id="GMdu4HkYUc1KK5raUGNz-12" value="Média" style="strokeWidth=1;html=1;shape=mxgraph.flowchart.display;whiteSpace=wrap;fillColor=light-dark(#FFCE9F,var(--ge-dark-color, #121212));" vertex="1" parent="1">
          <mxGeometry x="339" y="570" width="100" height="60" as="geometry" />
        </mxCell>
        <mxCell id="GMdu4HkYUc1KK5raUGNz-14" value="Fim" style="rounded=1;whiteSpace=wrap;html=1;fillColor=light-dark(#3399FF,#000000);" vertex="1" parent="1">
          <mxGeometry x="329" y="670" width="120" height="60" as="geometry" />
        </mxCell>
        <mxCell id="GMdu4HkYUc1KK5raUGNz-16" style="edgeStyle=orthogonalEdgeStyle;rounded=0;orthogonalLoop=1;jettySize=auto;html=1;entryX=0.5;entryY=0;entryDx=0;entryDy=0;entryPerimeter=0;" edge="1" parent="1" source="GMdu4HkYUc1KK5raUGNz-9" target="GMdu4HkYUc1KK5raUGNz-12">
          <mxGeometry relative="1" as="geometry" />
        </mxCell>
      </root>
    </mxGraphModel>
  </diagram>
</mxfile>
